# xmcd CD database file
#
# Track frame offsets:
#	150
#	39192
#	62003
#	109688
#	133023
#	154452
#	195428
#	222379
#	258598
#
# Disc length: 3888 seconds
#
# Revision: 0
# Processed by: cddbd v1.5.2PL0 Copyright (c) Steve Scherf et al.
# Submitted via: CDex 1.70beta2
#
DISCID=7f0f2e09
DTITLE=Maynard Ferguson - The One And Only Maynard Ferguson
DYEAR=2007
DGENRE=Jazz
TTITLE0=Without A Song
TTITLE1=Besame Mucho
TTITLE2=Ain't No Sunshine When She's Gone
TTITLE3=Vita Bella
TTITLE4=Dr. Fox Ph.D.
TTITLE5=Lost Horizons
TTITLE6=Surviving Soho
TTITLE7=The Days Of Wine And Roses
TTITLE8=Darn That Dream
EXTD=YEAR: 2007
EXTT0=
EXTT1=
EXTT2=
EXTT3=
EXTT4=
EXTT5=
EXTT6=
EXTT7=
EXTT8=
PLAYORDER=
